<svg width="40" height="40" viewBox="0 0 40 40" fill="none" xmlns="http://www.w3.org/2000/svg">
<g clip-path="url(#clip0_2471_6530)">
<path d="M34.2812 19.8281C34.9037 20.034 35.637 20.9712 35.6632 22.0238L35.6712 26.1913C35.6712 26.8806 35.4137 27.4403 35.0276 27.7161L20.8884 37.7356C21.2751 37.4639 21.5325 36.904 21.531 36.2144L21.5249 32.0444C21.5415 31.1215 21.0059 30.0232 20.1426 29.8505L34.2812 19.8281Z" fill="#FBAC0F"/>
<path d="M20.4981 29.7773L34.7257 19.7398L15.075 16.1602L0.84668 26.1973L20.4981 29.7773Z" fill="#F4D177"/>
<path d="M5.5398 11.0898C4.91098 11.2738 4.16738 12.1137 4.13887 13.0601L4.13379 16.8027C4.13379 17.4207 4.39199 17.923 4.78301 18.1703L19.1012 27.168C18.71 26.922 18.4502 26.4193 18.4502 25.8016L18.4565 22.0565C18.4403 21.2292 18.9821 20.2432 19.8562 20.0875L5.5398 11.0898Z" fill="#E63431"/>
<path d="M19.8568 19.8998L5.27344 11.0973L25.4168 7.95703L40.0002 16.7595L19.8568 19.8998Z" fill="#DD6F6F"/>
<path d="M14.6723 12.1219L3.04829 4.80484C2.53618 4.95352 1.93376 5.63656 1.91087 6.40547L1.90626 9.44773C1.90446 9.95297 2.11634 10.3611 2.43439 10.5627L14.0571 17.8786C13.7392 17.6794 13.5284 17.2688 13.5284 16.7682L13.5335 13.7221C13.5211 13.0495 13.961 12.2478 14.6723 12.1219ZM19.2432 1.97656L3.38337 4.60586L14.8677 11.9738L30.7278 9.34312L19.2432 1.97656Z" fill="#006AB3"/>
<path d="M21.0832 30.5418C20.8868 30.2404 20.6197 30.0299 20.3252 29.9758L0.553711 26.5117C0.553711 26.5117 1.39988 28.9066 1.37082 30.5001C1.34816 31.7907 0.563867 34.2333 0.563867 34.2333L20.3354 37.6974C20.63 37.7513 20.8966 37.6348 21.0904 37.4033C21.2857 37.1718 21.4053 36.8273 21.4053 36.4259L21.3976 31.6295C21.3977 31.2281 21.2768 30.841 21.0832 30.5418ZM39.4143 16.6433L19.5193 19.9362C19.2218 19.9883 18.952 20.1875 18.7571 20.4752C18.5596 20.7616 18.4389 21.1277 18.4389 21.509L18.433 26.0715C18.433 26.4544 18.5516 26.7812 18.7482 26.9988C18.9434 27.2201 19.212 27.3308 19.5081 27.2799L39.4045 23.9855C39.4045 23.9855 38.8318 22.5298 38.6701 20.2213C38.5634 18.7097 39.4143 16.6433 39.4143 16.6433ZM14.7107 17.9714L30.8601 15.3734C30.8601 15.3734 30.1509 14.1823 30.0825 12.5277C30.0278 11.2178 30.8693 9.58594 30.8693 9.58594L14.7193 12.1833C14.4797 12.2232 14.2609 12.3812 14.1001 12.6071C13.9416 12.8312 13.8442 13.1195 13.8442 13.4216L13.8391 17.0165C13.8361 17.3162 13.9343 17.5754 14.0937 17.7484C14.2523 17.9216 14.4696 18.0078 14.7107 17.9714Z" fill="#E4DCC9"/>
<path d="M39.9522 23.6302C39.9466 23.6164 39.419 22.2719 39.2673 20.1796C39.1743 18.8911 39.9517 17.0324 39.9583 17.0126C40.0386 16.7699 39.998 16.3995 39.709 16.1803L31.0464 10.6948C31.2148 10.2414 31.343 9.99854 31.3811 9.90862C31.461 9.72151 31.461 9.28198 31.1522 9.03885C31.06 8.96651 19.5941 1.72112 19.5941 1.72112C19.4613 1.63651 19.3036 1.60456 19.1449 1.62916C19.1449 1.62916 3.3084 4.20487 3.10184 4.25885C2.35387 4.45424 1.53981 5.3794 1.5077 6.47784L1.50262 9.52166C1.50215 10.2313 1.80996 10.8521 2.32786 11.1832L3.86387 12.1558C3.78301 12.4008 3.72653 12.6595 3.7184 12.931L3.71231 16.6512C3.71231 17.4678 4.06387 18.1788 4.65356 18.5551L7.69559 20.4814C7.69559 20.4814 0.445433 25.5985 0.266839 25.7165C0.0887925 25.8346 -0.065895 26.1561 0.0287144 26.4949C0.035355 26.5186 0.838714 28.861 0.81223 30.3587C0.790902 31.5721 0.0398863 33.9769 0.0337925 34.0014C-0.0481606 34.3226 0.0984019 34.7569 0.535433 34.8301L20.3298 38.3774C20.9816 38.4201 21.4115 38.096 21.7051 37.851C21.9992 37.606 35.3772 28.1999 35.3772 28.1999C35.9507 27.7942 36.2915 27.031 36.29 26.1592L36.2889 25.0174L39.4551 24.5077C40.055 24.418 40.0468 23.8645 39.9522 23.6302ZM30.6983 12.0018L37.5838 16.3621L24.7822 18.4568L19.9868 19.2289L18.228 18.1149L30.9008 16.0716C31.3608 15.9924 31.5725 15.4471 31.3547 15.1059C31.3481 15.0957 30.7222 14.0133 30.6628 12.5472C30.6557 12.3717 30.6729 12.1878 30.6983 12.0018ZM29.8584 14.932C29.8584 14.932 14.5343 17.4105 14.4936 17.4092C14.4096 17.4062 14.3582 17.2385 14.3593 17.0877L14.3639 13.4717C14.3797 13.0538 14.5832 12.8747 14.7007 12.8638L29.7664 10.4354C29.5486 11.0626 29.343 11.8645 29.372 12.5994C29.4111 13.5542 29.6441 14.3687 29.8584 14.932ZM19.1107 2.94252L29.0264 9.22174L18.9632 10.8693L14.9682 11.5129L5.06317 5.2412L19.1107 2.94252ZM3.02036 10.094C2.91606 10.0271 2.79293 9.83729 2.79395 9.52354L2.79903 6.49807C2.80973 6.12862 3.04067 5.79831 3.25239 5.62252L13.5736 12.1575C13.3457 12.3536 13.0689 12.9642 13.073 13.4712C13.0765 13.8841 13.0629 16.4512 13.0629 16.4512L3.02036 10.094ZM5.34606 17.4652C5.17965 17.3601 5.00309 17.0903 5.00309 16.6521C5.00309 16.6521 4.94457 13.0131 5.02043 12.8876C5.02043 12.8876 13.5736 18.4428 13.975 18.6007C14.1348 18.6636 14.3047 18.7058 14.4813 18.7014C14.6156 18.6979 16.3048 18.4252 16.3048 18.4252L18.5124 19.8226C17.9476 20.2174 17.8454 20.9842 17.8454 21.4721L17.8326 25.3717L5.34606 17.4652ZM8.87598 21.2287C8.87598 21.2287 18.5851 27.467 18.7388 27.5488C18.9466 27.6595 19.1785 27.7173 19.4139 27.7172C19.4943 27.7172 22.686 27.2089 22.686 27.2089L20.0032 29.0993L2.26942 25.8849L8.87598 21.2287ZM20.5908 37.111L1.47161 33.686C1.71481 32.8181 2.08676 31.3408 2.10301 30.3813C2.12082 29.3331 1.81606 28.009 1.56528 27.1062C1.56528 27.1062 19.9019 30.3141 20.3197 30.4677C20.7374 30.6214 20.8682 31.2538 20.8682 31.528L20.8732 36.4428C20.8742 36.6841 20.7913 37.1121 20.5908 37.111ZM34.6323 27.1461L22.1716 35.9255L22.1589 31.5273C22.1589 31.0055 21.9203 30.0569 21.4227 29.6786L25.5902 26.7414L34.9982 25.2255L34.9992 26.1609C35.0007 26.6954 34.8012 27.0264 34.6323 27.1461ZM19.4486 26.4229C19.3534 26.4206 19.1311 26.3229 19.1296 25.8905L19.1361 21.4727C19.1361 21.2516 19.2613 20.7439 19.6679 20.5871L38.3912 17.5721C38.1582 18.3331 37.915 19.377 37.9796 20.2727C38.0772 21.6265 38.3184 22.6909 38.5061 23.3528C38.5062 23.3528 19.5036 26.4245 19.4486 26.4229Z" fill="black"/>
</g>
<defs>
<clipPath id="clip0_2471_6530">
<rect width="40" height="40" fill="white"/>
</clipPath>
</defs>
</svg>
