<svg width="24" height="24" viewBox="0 0 24 24" fill="none" xmlns="http://www.w3.org/2000/svg">
<path fill-rule="evenodd" clip-rule="evenodd" d="M10.856 13.1424C9.68602 11.9724 8.80402 10.6624 8.21802 9.33341C8.09402 9.05241 8.16702 8.72341 8.38402 8.50641L9.20302 7.68841C9.87402 7.01741 9.87402 6.06841 9.28802 5.48241L8.11402 4.30841C7.33302 3.52741 6.06702 3.52741 5.28602 4.30841L4.63402 4.96041C3.89302 5.70141 3.58402 6.77041 3.78402 7.83041C4.27802 10.4434 5.79602 13.3044 8.24502 15.7534C10.694 18.2024 13.555 19.7204 16.168 20.2144C17.228 20.4144 18.297 20.1054 19.038 19.3644L19.689 18.7134C20.47 17.9324 20.47 16.6664 19.689 15.8854L18.516 14.7124C17.93 14.1264 16.98 14.1264 16.395 14.7124L15.492 15.6164C15.275 15.8334 14.946 15.9064 14.665 15.7824C13.336 15.1954 12.026 14.3124 10.856 13.1424Z" stroke="#4848FF" stroke-width="1.5" stroke-linecap="round" stroke-linejoin="round"/>
</svg>
