<svg width="444" height="377" viewBox="0 0 444 377" fill="none" xmlns="http://www.w3.org/2000/svg">
<path d="M154.152 6.42188C156.374 2.5694 160.562 0.31568 164.976 0.583984L164.992 0.584961H273.827C282.516 1.11706 287.608 10.6129 283.261 18.1523L283.26 18.1543L82.7881 369.189C78.4394 376.745 67.697 377.067 62.9072 369.794L2.49609 278.035C0.0609851 274.331 -0.0860441 269.552 2.12207 265.699L2.12109 265.698L154.15 6.4248L154.152 6.42188Z" stroke="#D8D8D8" stroke-width="1.125"/>
<path d="M131.505 253.781H225.487C234.426 253.781 240.016 263.416 235.733 271.184L235.521 271.552L176.682 369.905C174.553 373.437 170.753 375.597 166.647 375.597H72.6642C63.583 375.596 57.9578 365.653 62.6291 357.825L62.6301 357.826L121.469 259.471L121.47 259.472C123.584 255.942 127.384 253.781 131.505 253.781Z" stroke="#D8D8D8" stroke-width="1.125"/>
<path d="M360.235 110.034C364.596 102.476 375.37 102.154 380.174 109.43L440.748 201.207C443.188 204.909 443.338 209.684 441.13 213.535L347.791 368.24L347.785 368.249C345.558 372.102 341.358 374.357 336.931 374.089L336.913 374.087L336.895 374.088L227.185 374.538C218.47 374.005 213.367 364.521 217.726 356.968L360.235 110.034Z" stroke="#D8D8D8" stroke-width="1.125"/>
<path d="M275.551 104.164H369.789C378.898 104.164 384.534 114.11 379.851 121.938L320.852 220.313C318.732 223.844 314.922 226.005 310.789 226.005H216.552C207.443 226.005 201.806 216.059 206.489 208.231L265.488 109.855C267.608 106.325 271.432 104.164 275.551 104.164Z" stroke="#D8D8D8" stroke-width="1.125"/>
</svg>
