<svg width="12" height="12" viewBox="0 0 12 12" fill="none" xmlns="http://www.w3.org/2000/svg">
<path d="M11.25 5.25H7.81L10.2425 2.8175C10.3162 2.74884 10.3753 2.66604 10.4163 2.57404C10.4573 2.48204 10.4793 2.38273 10.4811 2.28202C10.4829 2.18132 10.4643 2.08129 10.4266 1.9879C10.3889 1.89451 10.3328 1.80968 10.2615 1.73846C10.1903 1.66724 10.1055 1.6111 10.0121 1.57338C9.91871 1.53566 9.81868 1.51713 9.71798 1.51891C9.61727 1.52069 9.51796 1.54273 9.42596 1.58372C9.33396 1.62471 9.25116 1.68381 9.1825 1.7575L6.75 4.19V0.75C6.75 0.551088 6.67098 0.360322 6.53033 0.21967C6.38968 0.0790176 6.19891 0 6 0C5.80109 0 5.61032 0.0790176 5.46967 0.21967C5.32902 0.360322 5.25 0.551088 5.25 0.75V4.19L2.8175 1.7575C2.74884 1.68381 2.66604 1.62471 2.57404 1.58372C2.48204 1.54273 2.38273 1.52069 2.28202 1.51891C2.18132 1.51713 2.08129 1.53566 1.9879 1.57338C1.89451 1.6111 1.80968 1.66724 1.73846 1.73846C1.66724 1.80968 1.6111 1.89451 1.57338 1.9879C1.53566 2.08129 1.51713 2.18132 1.51891 2.28202C1.52069 2.38273 1.54273 2.48204 1.58372 2.57404C1.62471 2.66604 1.68381 2.74884 1.7575 2.8175L4.19 5.25H0.75C0.551088 5.25 0.360322 5.32902 0.21967 5.46967C0.0790176 5.61032 0 5.80109 0 6C0 6.19891 0.0790176 6.38968 0.21967 6.53033C0.360322 6.67098 0.551088 6.75 0.75 6.75H4.19L1.7575 9.1825C1.68381 9.25116 1.62471 9.33396 1.58372 9.42596C1.54273 9.51796 1.52069 9.61727 1.51891 9.71798C1.51713 9.81868 1.53566 9.91871 1.57338 10.0121C1.6111 10.1055 1.66724 10.1903 1.73846 10.2615C1.80968 10.3328 1.89451 10.3889 1.9879 10.4266C2.08129 10.4643 2.18132 10.4829 2.28202 10.4811C2.38273 10.4793 2.48204 10.4573 2.57404 10.4163C2.66604 10.3753 2.74884 10.3162 2.8175 10.2425L5.25 7.81V11.25C5.25 11.4489 5.32902 11.6397 5.46967 11.7803C5.61032 11.921 5.80109 12 6 12C6.19891 12 6.38968 11.921 6.53033 11.7803C6.67098 11.6397 6.75 11.4489 6.75 11.25V7.81L9.1825 10.2425C9.25116 10.3162 9.33396 10.3753 9.42596 10.4163C9.51796 10.4573 9.61727 10.4793 9.71798 10.4811C9.81868 10.4829 9.91871 10.4643 10.0121 10.4266C10.1055 10.3889 10.1903 10.3328 10.2615 10.2615C10.3328 10.1903 10.3889 10.1055 10.4266 10.0121C10.4643 9.91871 10.4829 9.81868 10.4811 9.71798C10.4793 9.61727 10.4573 9.51796 10.4163 9.42596C10.3753 9.33396 10.3162 9.25116 10.2425 9.1825L7.81 6.75H11.25C11.4489 6.75 11.6397 6.67098 11.7803 6.53033C11.921 6.38968 12 6.19891 12 6C12 5.80109 11.921 5.61032 11.7803 5.46967C11.6397 5.32902 11.4489 5.25 11.25 5.25Z" fill="#7070FF"/>
</svg>