<svg width="40" height="40" viewBox="0 0 40 40" fill="none" xmlns="http://www.w3.org/2000/svg">
<path fill-rule="evenodd" clip-rule="evenodd" d="M22.3689 2.27721L24.7506 4.06002C25.402 4.5476 26.0876 4.79713 26.9001 4.84236L29.8704 5.0076C31.6491 5.1065 33.0937 6.31861 33.5 8.05314L34.1786 10.9498C34.3641 11.742 34.729 12.3738 35.3222 12.9306L37.4915 14.9667C38.7904 16.1857 39.1179 18.0428 38.3143 19.6327L36.9722 22.2878C36.6051 23.0139 36.4784 23.7324 36.575 24.5403L36.9281 27.4944C37.1395 29.2632 36.1966 30.8963 34.5591 31.5976L31.8243 32.7688C31.0763 33.0892 30.5174 33.5581 30.0721 34.2391L28.4437 36.7289C27.4687 38.2198 25.6967 38.8647 23.9915 38.3494L21.1437 37.4888C20.3649 37.2534 19.6353 37.2534 18.8564 37.4888L16.0086 38.3494C14.3034 38.8647 12.5314 38.2198 11.5564 36.7289L9.928 34.2391C9.48261 33.5581 8.9237 33.0892 8.17581 32.7688L5.44081 31.5974C3.80331 30.8961 2.86042 29.2631 3.07183 27.4942L3.42495 24.5402C3.52152 23.7323 3.3948 23.0138 3.02777 22.2876L1.68566 19.6325C0.882061 18.0428 1.20948 16.1856 2.50839 14.9665L4.67769 12.9305C5.27097 12.3737 5.63573 11.7418 5.82128 10.9496L6.49987 8.05299C6.90612 6.31853 8.35073 5.10643 10.1294 5.00744L13.0998 4.84221C13.9122 4.79705 14.5979 4.54744 15.2493 4.05986L17.631 2.27705C19.057 1.20971 20.9428 1.20971 22.3689 2.27721ZM18.4806 21.0209L15.8959 18.4362C15.226 17.7663 14.1393 17.7663 13.4695 18.4362C12.7996 19.1061 12.7996 20.1927 13.4695 20.8626L17.2711 24.6642C17.9411 25.334 19.0277 25.3341 19.6976 24.6642C21.989 22.3727 24.2544 20.0555 26.5353 17.7535C27.2004 17.0823 27.1983 15.9992 26.5279 15.3325C25.8574 14.6657 24.7711 14.6676 24.1054 15.34L18.4806 21.0209ZM19.9999 7.22354C16.4717 7.22354 13.2774 8.65369 10.9652 10.9659C8.653 13.2781 7.22284 16.4724 7.22284 20.0006C7.22284 23.5288 8.653 26.7231 10.9652 29.0353C13.2774 31.3474 16.4717 32.7776 19.9999 32.7776C23.5281 32.7776 26.7224 31.3474 29.0346 29.0353C31.3468 26.7231 32.7769 23.5288 32.7769 20.0006C32.7769 16.4724 31.3468 13.2781 29.0346 10.9659C26.7224 8.65369 23.5281 7.22354 19.9999 7.22354ZM28.1508 11.8497C26.0648 9.76377 23.183 8.47354 19.9999 8.47354C16.8168 8.47354 13.935 9.76377 11.849 11.8497C9.76308 13.9356 8.47284 16.8174 8.47284 20.0006C8.47284 23.1837 9.76308 26.0655 11.849 28.1514C13.935 30.2374 16.8168 31.5276 19.9999 31.5276C23.183 31.5276 26.0648 30.2374 28.1508 28.1515C30.2367 26.0656 31.5269 23.1838 31.5269 20.0006C31.5269 16.8174 30.2367 13.9356 28.1508 11.8497Z" fill="#05DF72"/>
</svg>
