<svg width="40" height="40" viewBox="0 0 40 40" fill="none" xmlns="http://www.w3.org/2000/svg">
<path d="M32.7116 14.5867C32.4529 15.3793 32.0096 16.0991 31.4182 16.6867C30.8268 17.2744 30.1042 17.7131 29.3099 17.9667C28.1653 18.3446 26.927 18.3286 25.7925 17.9212C24.658 17.5137 23.6925 16.7382 23.0499 15.7183C23.006 15.6423 22.9829 15.5561 22.9829 15.4683C22.9829 15.3806 23.006 15.2943 23.0499 15.2183C24.0658 13.3937 24.4191 11.2738 24.0499 9.21833C24.0333 9.13339 24.0389 9.04557 24.0664 8.96348C24.0939 8.88138 24.1422 8.80782 24.2066 8.75C25.1541 7.94476 26.3565 7.50181 27.5999 7.5C28.4529 7.50069 29.2936 7.70381 30.0528 8.09267C30.812 8.48153 31.468 9.04503 31.967 9.73683C32.4661 10.4286 32.7937 11.229 32.9232 12.0721C33.0526 12.9152 32.9801 13.777 32.7116 14.5867Z" fill="#FF8904"/>
<path d="M37.5001 27.8011C37.5718 28.4387 37.4983 29.0841 37.2852 29.6893C37.0722 30.2944 36.7251 30.8435 36.2698 31.2955C35.8146 31.7476 35.263 32.0908 34.6564 32.2996C34.0498 32.5084 33.4038 32.5773 32.7668 32.5011H30.3335C30.2684 32.5009 30.204 32.4878 30.1441 32.4624C30.0842 32.4371 30.0299 32.4 29.9845 32.3535C29.939 32.307 29.9033 32.2518 29.8794 32.1913C29.8554 32.1308 29.8438 32.0662 29.8451 32.0011C29.8444 31.9333 29.8517 31.8656 29.8668 31.7995C29.9633 31.2162 30.0079 30.6256 30.0001 30.0345C30.0396 28.4347 29.7576 26.8433 29.1707 25.3546C28.5838 23.8659 27.704 22.5102 26.5835 21.3678L26.5335 21.3178C26.4846 21.2738 26.4458 21.2197 26.4199 21.1593C26.394 21.0989 26.3816 21.0335 26.3835 20.9678C26.3835 20.8352 26.4361 20.708 26.5299 20.6142C26.6237 20.5205 26.7509 20.4678 26.8835 20.4678H30.1835C31.1623 20.4038 32.1435 20.5498 33.0614 20.8959C33.9792 21.242 34.8124 21.7803 35.5053 22.4747C36.1981 23.1692 36.7345 24.0036 37.0786 24.9223C37.4226 25.8409 37.5663 26.8224 37.5001 27.8011Z" fill="#51A2FF"/>
<path d="M15.0167 17.5013C18.6986 17.5013 21.6834 14.5165 21.6834 10.8346C21.6834 7.15274 18.6986 4.16797 15.0167 4.16797C11.3348 4.16797 8.3501 7.15274 8.3501 10.8346C8.3501 14.5165 11.3348 17.5013 15.0167 17.5013Z" fill="#FF8904"/>
<path d="M27.5 30.0359C27.5 33.8359 25.4833 35.8359 21.6667 35.8359H8.33333C4.51667 35.8359 2.5 33.8359 2.5 30.0359C2.5 25.7859 4.9 20.8359 11.6667 20.8359H18.3333C25.1 20.8359 27.5 25.7859 27.5 30.0359Z" fill="#51A2FF"/>
</svg>
